<svg xmlns="http://www.w3.org/2000/svg" style="display:none" aria-hidden="true">
  <defs>

    <symbol id="icon-brand" viewBox="0 0 28 28">
      <path d="M2 9V2h7"/>
      <path d="M26 9V2h-7"/>
      <path d="M2 19v7h7"/>
      <path d="M26 19v7h-7"/>
      <circle cx="14" cy="14" r="2.6"/>
    </symbol>

    <symbol id="icon-mail" viewBox="0 0 24 24">
      <rect x="3" y="5" width="18" height="14" rx="2"/>
      <path d="M4 7l8 6 8-6"/>
    </symbol>

    <symbol id="icon-github" viewBox="0 0 24 24">
      <line x1="6" y1="3" x2="6" y2="15"/>
      <circle cx="18" cy="6" r="2.8"/>
      <circle cx="6" cy="18" r="2.8"/>
      <path d="M18 8.8A8.2 8.2 0 0 1 9.8 17"/>
    </symbol>

    <symbol id="icon-linkedin" viewBox="0 0 24 24">
      <circle cx="6" cy="6" r="2.2"/>
      <circle cx="18" cy="6" r="2.2"/>
      <circle cx="12" cy="18.5" r="2.2"/>
      <path d="M7.7 7.4L10.4 16.5"/>
      <path d="M16.3 7.4L13.6 16.5"/>
      <path d="M8.2 6h7.6"/>
    </symbol>

    <symbol id="icon-scholar" viewBox="0 0 24 24">
      <path d="M12 4L2 9l10 5 10-5-10-5z"/>
      <path d="M6 11.5V17c0 1.5 3 3 6 3s6-1.5 6-3v-5.5"/>
      <path d="M22 9v6"/>
    </symbol>

    <symbol id="icon-external" viewBox="0 0 24 24">
      <path d="M10 14L20 4"/>
      <path d="M14 4h6v6"/>
      <path d="M19 13v6a2 2 0 0 1-2 2H5a2 2 0 0 1-2-2V7a2 2 0 0 1 2-2h6"/>
    </symbol>

    <symbol id="icon-download" viewBox="0 0 24 24">
      <path d="M12 3v12"/>
      <path d="M7.5 10.5L12 15l4.5-4.5"/>
      <path d="M4.5 19h15"/>
    </symbol>

    <symbol id="icon-pin" viewBox="0 0 24 24">
      <path d="M12 21s7-7.8 7-12.6A7 7 0 0 0 5 8.4C5 13.2 12 21 12 21z"/>
      <circle cx="12" cy="8.4" r="2.4"/>
    </symbol>

    <symbol id="icon-building" viewBox="0 0 24 24">
      <rect x="4" y="3" width="16" height="18"/>
      <path d="M8 7h1M8 11h1M8 15h1M15 7h1M15 11h1M15 15h1"/>
      <path d="M10 21v-4h4v4"/>
    </symbol>

    <symbol id="icon-document" viewBox="0 0 24 24">
      <path d="M6 3h8l4 4v14a1 1 0 0 1-1 1H6a1 1 0 0 1-1-1V4a1 1 0 0 1 1-1z"/>
      <path d="M14 3v4h4"/>
      <path d="M8 13h8M8 17h5"/>
    </symbol>

    <symbol id="icon-certificate" viewBox="0 0 24 24">
      <circle cx="12" cy="8" r="5"/>
      <path d="M9 12.3L6.5 21l5.5-3.2L17.5 21 15 12.3"/>
      <path d="M9.5 8l1.8 1.8L14.5 6"/>
    </symbol>

    <symbol id="icon-ct-scan" viewBox="0 0 24 24">
      <circle cx="12" cy="12" r="8"/>
      <circle cx="12" cy="12" r="4"/>
      <path d="M12 2v4M12 18v4M2 12h4M18 12h4"/>
    </symbol>

    <symbol id="icon-layers" viewBox="0 0 24 24">
      <path d="M12 3l9 5-9 5-9-5 9-5z"/>
      <path d="M3 12.5l9 5 9-5"/>
      <path d="M3 16.8l9 5 9-5"/>
    </symbol>

    <symbol id="icon-window" viewBox="0 0 24 24">
      <path d="M4 19V13M8.5 19V8M13 19V11M17.5 19V6"/>
      <rect x="6" y="4" width="9" height="15"/>
    </symbol>

    <symbol id="icon-fusion" viewBox="0 0 24 24">
      <circle cx="6" cy="6" r="2.2"/>
      <circle cx="18" cy="6" r="2.2"/>
      <circle cx="6" cy="18" r="2.2"/>
      <circle cx="18" cy="18" r="2.2"/>
      <circle cx="12" cy="12" r="2.6"/>
      <path d="M7.6 7.6L10.1 10.1M16.4 7.6L13.9 10.1M7.6 16.4L10.1 13.9M16.4 16.4L13.9 13.9"/>
    </symbol>

    <symbol id="icon-flask" viewBox="0 0 24 24">
      <path d="M9 3h6"/>
      <path d="M10 3v6.2L4.8 18a2 2 0 0 0 1.7 3h11a2 2 0 0 0 1.7-3L14 9.2V3"/>
      <path d="M7.5 14.5h9"/>
    </symbol>

    <symbol id="icon-database" viewBox="0 0 24 24">
      <ellipse cx="12" cy="5.5" rx="7" ry="2.5"/>
      <path d="M5 5.5v13c0 1.4 3.1 2.5 7 2.5s7-1.1 7-2.5v-13"/>
      <path d="M5 12c0 1.4 3.1 2.5 7 2.5s7-1.1 7-2.5"/>
    </symbol>

    <symbol id="icon-code" viewBox="0 0 24 24">
      <path d="M9 6L3 12l6 6"/>
      <path d="M15 6l6 6-6 6"/>
    </symbol>

    <symbol id="icon-coffee" viewBox="0 0 24 24">
      <path d="M4 8h13v6a5 5 0 0 1-5 5H9a5 5 0 0 1-5-5V8z"/>
      <path d="M17 9.5h1.5a2.5 2.5 0 0 1 0 5H17"/>
      <path d="M7 5c0-1 1-1 1-2M11 5c0-1 1-1 1-2"/>
    </symbol>

    <symbol id="icon-aperture" viewBox="0 0 24 24">
      <circle cx="12" cy="12" r="9"/>
      <path d="M12 3v5.2M19.8 8l-4.5 2.6M19.8 16l-4.5-2.6M12 21v-5.2M4.2 16l4.5-2.6M4.2 8l4.5 2.6"/>
    </symbol>

    <symbol id="icon-flame" viewBox="0 0 24 24">
      <path d="M12 2c1 3-2.5 4.5-2.5 8a2.5 2.5 0 0 0 5 0c0-1-.5-1.6-1-2.3 2.3 1 4 3.3 4 6.1a6.5 6.5 0 0 1-13 0C4.5 9.5 8 6.5 12 2z"/>
    </symbol>

    <symbol id="icon-pen-nib" viewBox="0 0 24 24">
      <path d="M12 3l7 7-8 11-2-2 3-9z"/>
      <path d="M11 12l-6 6"/>
    </symbol>

    <symbol id="icon-grid" viewBox="0 0 24 24">
      <rect x="3" y="3" width="7" height="7"/>
      <rect x="14" y="3" width="7" height="7"/>
      <rect x="3" y="14" width="7" height="7"/>
      <rect x="14" y="14" width="7" height="7"/>
    </symbol>

    <symbol id="icon-terminal" viewBox="0 0 24 24">
      <rect x="3" y="4" width="18" height="16" rx="1.5"/>
      <path d="M6.5 9l3.5 3-3.5 3"/>
      <path d="M12.5 15h5"/>
    </symbol>

    <symbol id="icon-users" viewBox="0 0 24 24">
      <circle cx="9" cy="8" r="3"/>
      <path d="M3.5 20c0-3.5 2.5-6 5.5-6s5.5 2.5 5.5 6"/>
      <circle cx="17.5" cy="9" r="2.4"/>
      <path d="M15.2 20c.3-2.6 1.8-4.6 3.8-5.3"/>
    </symbol>

  </defs>
</svg>
